<svg width="169" height="62" viewBox="0 0 169 62" fill="none" xmlns="http://www.w3.org/2000/svg">
<g clip-path="url(#clip0_1_151)">
<path d="M13.6262 31.3431H23.0562C27.0952 31.3721 30.4202 33.6641 30.9292 37.5701H31.9412C32.4532 33.6451 35.8082 31.3411 39.8732 31.3411H48.7472V39.3411H42.5202V40.2121H49.1822C49.2978 40.2121 49.4087 40.1662 49.4905 40.0844C49.5723 40.0026 49.6182 39.8917 49.6182 39.7761V30.9021C49.6182 30.7865 49.5723 30.6756 49.4905 30.5938C49.4087 30.512 49.2978 30.4661 49.1822 30.4661H39.8722C35.8072 30.4661 32.4522 28.1661 31.9402 24.2361H30.9282C30.4162 28.1621 27.0612 30.4661 22.9962 30.4661H14.0672C14.1022 27.8721 14.1582 23.7861 14.1772 22.4661H20.3532V21.5941H13.8182C13.797 21.5908 13.7756 21.5892 13.7542 21.5891C13.6332 21.5891 13.3602 21.6321 13.3192 22.0301C13.3192 22.0391 13.3192 22.0481 13.3192 22.0561C13.3192 22.0641 13.3192 22.0961 13.3192 22.1171L13.3002 23.4061C13.2882 24.2381 13.2732 25.3481 13.2582 26.4581L13.1982 30.8971C13.1974 30.9548 13.208 31.0121 13.2295 31.0656C13.251 31.1192 13.2828 31.1679 13.3232 31.2091C13.4036 31.2905 13.5119 31.3384 13.6262 31.3431Z" fill="#0A337A"/>
<path d="M24.5842 40.4061H38.2842V39.1581H24.5842V40.4061Z" fill="#0A337A"/>
<path d="M18.0332 49.4021H18.0852C19.3412 49.4126 20.5571 48.9597 21.5002 48.1301C22.033 47.6602 22.4591 47.0818 22.7499 46.4336C23.0407 45.7854 23.1895 45.0825 23.1862 44.3721V32.9281H21.9382V44.3721C21.941 44.9187 21.824 45.4593 21.5955 45.9559C21.3669 46.4524 21.0323 46.8928 20.6152 47.2461C19.9105 47.8406 19.0161 48.1627 18.0942 48.1541H18.0322C17.4856 48.1569 16.945 48.04 16.4484 47.8114C15.9519 47.5828 15.5115 47.2482 15.1582 46.8311C14.5637 46.1264 14.2416 45.232 14.2502 44.3101V44.2481C14.2416 43.3262 14.5637 42.4318 15.1582 41.7271C15.5115 41.31 15.952 40.9755 16.4485 40.7469C16.945 40.5183 17.4856 40.4013 18.0322 40.4041H20.5382V39.1581H18.0322C17.3218 39.1548 16.6189 39.3036 15.9707 39.5944C15.3225 39.8852 14.7441 40.3113 14.2742 40.8441C13.4452 41.7871 12.9927 43.0025 13.0032 44.2581V44.3011C12.9927 45.5571 13.4456 46.773 14.2752 47.7161C14.745 48.249 15.3235 48.6751 15.9717 48.9659C16.6199 49.2567 17.3228 49.4055 18.0332 49.4021Z" fill="#0A337A"/>
<path d="M24.5852 22.6531H38.2852V21.4051H24.5852V22.6531Z" fill="#0A337A"/>
<path d="M23.1862 17.7251C23.2016 16.7574 23.5714 15.8289 24.2255 15.1155C24.8795 14.4021 25.7725 13.9533 26.7352 13.8541C27.2565 13.8185 27.7795 13.8903 28.2719 14.0651C28.7642 14.2398 29.2155 14.5138 29.5977 14.87C29.9799 15.2263 30.2849 15.6572 30.4938 16.1361C30.7027 16.6149 30.8111 17.1316 30.8122 17.6541V20.0051H32.0562V17.6541C32.0562 16.3118 31.523 15.0246 30.5739 14.0754C29.6247 13.1263 28.3374 12.5931 26.9952 12.5931C25.6529 12.5931 24.3657 13.1263 23.4165 14.0754C22.4674 15.0246 21.9342 16.3118 21.9342 17.6541V28.8781H23.1822L23.1862 17.7251Z" fill="#0A337A"/>
<path d="M48.2452 13.9821C47.2847 13.0807 46.0134 12.5849 44.6962 12.5981C43.7778 12.5926 42.8765 12.8467 42.0962 13.3311C41.3635 13.7846 40.7585 14.4175 40.3385 15.1699C39.9186 15.9223 39.6975 16.7694 39.6962 17.6311V28.8901H40.9442V17.6281C40.9462 16.9802 41.1133 16.3434 41.4296 15.7779C41.7459 15.2125 42.2011 14.7369 42.7522 14.3961C43.343 14.0305 44.0254 13.8398 44.7202 13.8461C45.7124 13.8355 46.6704 14.2084 47.3942 14.8871C47.9425 15.408 48.3221 16.0813 48.4839 16.8201C48.6457 17.5589 48.5822 18.3292 48.3017 19.0316C48.0213 19.7339 47.5367 20.3361 46.9106 20.7603C46.2844 21.1844 45.5455 21.4112 44.7892 21.4111H42.3402V22.6591H44.7892C45.7949 22.6591 46.7775 22.3576 47.6102 21.7935C48.4428 21.2294 49.0872 20.4287 49.4603 19.4947C49.8333 18.5607 49.9177 17.5364 49.7027 16.5539C49.4878 15.5714 48.9832 14.676 48.2542 13.9831L48.2452 13.9821Z" fill="#0A337A"/>
<path d="M39.6862 44.2111C39.6754 45.2015 39.2912 46.1514 38.6101 46.8706C37.9291 47.5898 37.0016 48.0254 36.0132 48.0901C35.501 48.1089 34.9903 48.0243 34.5115 47.8412C34.0327 47.6582 33.5958 47.3805 33.2268 47.0247C32.8578 46.669 32.5643 46.2425 32.3639 45.7707C32.1634 45.299 32.0601 44.7917 32.0602 44.2791V41.8041H30.8122V44.2791C30.8104 44.9439 30.9405 45.6024 31.1949 46.2165C31.4492 46.8307 31.8229 47.3883 32.2942 47.8571L32.3192 47.8821C33.264 48.8184 34.5411 49.3423 35.8712 49.3391H35.9432C37.2713 49.3153 38.5373 48.7724 39.47 47.8266C40.4027 46.8808 40.9279 45.6074 40.9332 44.2791V32.9321H39.6852L39.6862 44.2111Z" fill="#0A337A"/>
<path d="M72.8875 21.8445L68.1655 35.0635L63.4655 21.8745L59.8155 21.8865L66.4755 40.4545L69.8665 40.4435L76.5135 21.8355L72.8875 21.8445Z" fill="#0A337A"/>
<path d="M87.0895 26.3305V27.8305C86.5333 27.2418 85.862 26.7737 85.1173 26.4555C84.3726 26.1372 83.5704 25.9755 82.7605 25.9805C79.1875 25.9915 76.2965 28.9525 76.3105 33.2505C76.3235 37.4705 79.3875 40.4645 82.8835 40.4505C83.6783 40.4578 84.466 40.2991 85.1961 39.9847C85.9261 39.6703 86.5826 39.207 87.1235 38.6245V40.0745L90.5665 40.0635L90.5235 26.3165L87.0895 26.3305ZM83.4995 37.2935C82.9827 37.2851 82.4732 37.171 82.0022 36.9583C81.5312 36.7456 81.1087 36.4388 80.7607 36.0567C80.4127 35.6746 80.1466 35.2253 79.9787 34.7365C79.8108 34.2478 79.7447 33.7298 79.7845 33.2145C79.7775 30.9625 81.1955 29.1455 83.4745 29.1375C84.5033 29.2115 85.4661 29.6715 86.1701 30.4254C86.874 31.1794 87.267 32.1715 87.2703 33.203C87.2736 34.2344 86.8869 35.229 86.1878 35.9874C85.4887 36.7459 84.5288 37.212 83.5005 37.2925L83.4995 37.2935Z" fill="#0A337A"/>
<path d="M99.1955 31.7495L97.9245 31.1065C97.1725 30.7205 96.6795 30.4895 96.6785 29.9715C96.6785 29.4275 97.2195 29.1415 97.9185 29.1395C98.8495 29.2252 99.7083 29.677 100.306 30.3955L102.422 28.2405C101.898 27.5322 101.214 26.9578 100.425 26.5643C99.6363 26.1709 98.7658 25.9695 97.8845 25.9765C97.3297 25.936 96.7725 26.0075 96.246 26.187C95.7195 26.3665 95.2346 26.6502 94.8201 27.0212C94.4057 27.3922 94.0702 27.8428 93.8336 28.3463C93.5971 28.8497 93.4644 29.3956 93.4435 29.9515C93.4485 31.6855 94.5665 33.0295 96.7705 34.1355L97.9375 34.7275C98.8975 35.2165 99.4675 35.6545 99.4695 36.2505C99.4695 36.8715 98.7995 37.3655 97.9455 37.3685C96.812 37.2368 95.7768 36.6615 95.0665 35.7685L92.9505 38.1045C93.5071 38.8535 94.2361 39.4574 95.0757 39.8649C95.9152 40.2724 96.8406 40.4716 97.7735 40.4455C100.773 40.4365 102.712 38.5915 102.705 36.1325C102.698 34.0955 101.477 32.9075 99.1955 31.7495Z" fill="#0A337A"/>
<path d="M108.497 26.6957L105.054 26.7065L105.098 40.4545L108.541 40.4436L108.497 26.6957Z" fill="#0A337A"/>
<path d="M106.745 20.5985C106.463 20.5922 106.183 20.6414 105.92 20.7436C105.657 20.8457 105.417 20.9987 105.213 21.1937C105.009 21.3887 104.846 21.622 104.732 21.8802C104.619 22.1384 104.557 22.4165 104.551 22.6985C104.54 22.9995 104.589 23.2997 104.694 23.5819C104.799 23.8642 104.958 24.123 105.163 24.3436C105.368 24.5642 105.615 24.7422 105.889 24.8674C106.163 24.9927 106.458 25.0627 106.759 25.0735C107.049 25.0727 107.335 25.015 107.601 24.9035C107.868 24.7921 108.11 24.6293 108.314 24.4242C108.518 24.2192 108.679 23.9759 108.789 23.7085C108.899 23.441 108.955 23.1546 108.953 22.8655C108.958 22.5715 108.904 22.2795 108.796 22.0063C108.687 21.7331 108.525 21.484 108.32 21.2734C108.115 21.0627 107.87 20.8947 107.6 20.7789C107.33 20.6631 107.039 20.6018 106.745 20.5985Z" fill="#0A337A"/>
<path d="M117.508 26.6895L115.462 26.6955L115.446 21.6215L112.003 21.6325L112.019 26.7065L110.259 26.7115L110.268 29.6635L112.029 29.6585L112.063 40.4585L115.505 40.4475L115.472 29.6475L117.516 29.6405L117.508 26.6895Z" fill="#0A337A"/>
<path d="M128.017 26.3615L128.041 33.6885C128.048 36.0185 127.3 37.2885 125.462 37.2955C123.65 37.3015 122.869 36.0095 122.862 33.5495L122.84 26.3775L119.397 26.3885L119.416 32.6795C119.372 33.6484 119.418 34.6194 119.556 35.5795C120.11 38.7885 122.155 40.4645 125.473 40.4545C126.294 40.5119 127.118 40.3846 127.883 40.0819C128.648 39.7792 129.336 39.3089 129.895 38.7055C131.34 37.0955 131.489 35.2315 131.481 32.6945L131.461 26.3515L128.017 26.3615Z" fill="#0A337A"/>
<path d="M154.945 27.8855C154.489 27.3634 153.921 26.9495 153.285 26.6738C152.648 26.3981 151.958 26.2675 151.264 26.2915C150.351 26.2816 149.45 26.5033 148.646 26.936C147.841 27.3686 147.16 27.9981 146.664 28.7655C146.303 28.0123 145.73 27.3803 145.017 26.9459C144.303 26.5116 143.479 26.2936 142.643 26.3185C141.831 26.3225 141.028 26.4988 140.288 26.8358C139.548 27.1728 138.888 27.6628 138.351 28.2735V26.6945L134.908 26.7055L134.951 40.4525L138.394 40.4415L138.373 33.7105C138.364 30.8885 139.602 29.4865 141.311 29.4815C143.227 29.4755 143.751 31.1045 143.759 33.7715L143.78 40.4255L147.222 40.4145L147.2 33.6315C147.191 30.8095 148.429 29.4595 150.164 29.4535C151.717 29.4535 152.523 30.5595 152.531 32.8115L152.556 40.3975L155.998 40.3865L155.973 32.3345C155.963 30.5235 155.855 29.0225 154.945 27.8855Z" fill="#0A337A"/>
</g>
<defs>
<clipPath id="clip0_1_151">
<rect width="142.994" height="36.804" fill="white" transform="translate(13.003 12.598)"/>
</clipPath>
</defs>
</svg>
